<mxfile host="app.diagrams.net" agent="Mozilla/5.0 (Windows NT 10.0; Win64; x64) AppleWebKit/537.36 (KHTML, like Gecko) Chrome/136.0.0.0 Safari/537.36 Edg/136.0.0.0" version="27.0.9">
  <diagram name="Page-1" id="_l4OEMzcBCONSdaZu-op">
    <mxGraphModel dx="864" dy="444" grid="1" gridSize="10" guides="1" tooltips="1" connect="1" arrows="1" fold="1" page="1" pageScale="1" pageWidth="850" pageHeight="1100" math="0" shadow="0">
      <root>
        <mxCell id="0" />
        <mxCell id="1" parent="0" />
        <mxCell id="22TfEtCPh6xhHIKmJ_tt-5" style="edgeStyle=orthogonalEdgeStyle;rounded=0;orthogonalLoop=1;jettySize=auto;html=1;" edge="1" parent="1" source="22TfEtCPh6xhHIKmJ_tt-1" target="22TfEtCPh6xhHIKmJ_tt-4">
          <mxGeometry relative="1" as="geometry" />
        </mxCell>
        <mxCell id="22TfEtCPh6xhHIKmJ_tt-1" value="Start" style="ellipse;whiteSpace=wrap;html=1;" vertex="1" parent="1">
          <mxGeometry x="220" y="10" width="120" height="30" as="geometry" />
        </mxCell>
        <mxCell id="22TfEtCPh6xhHIKmJ_tt-2" value="End" style="ellipse;whiteSpace=wrap;html=1;" vertex="1" parent="1">
          <mxGeometry x="180" y="530" width="120" height="30" as="geometry" />
        </mxCell>
        <mxCell id="22TfEtCPh6xhHIKmJ_tt-22" style="edgeStyle=orthogonalEdgeStyle;rounded=0;orthogonalLoop=1;jettySize=auto;html=1;" edge="1" parent="1" source="22TfEtCPh6xhHIKmJ_tt-3" target="22TfEtCPh6xhHIKmJ_tt-18">
          <mxGeometry relative="1" as="geometry" />
        </mxCell>
        <mxCell id="22TfEtCPh6xhHIKmJ_tt-3" value="" style="rounded=0;whiteSpace=wrap;html=1;" vertex="1" parent="1">
          <mxGeometry x="190" y="370" width="120" height="30" as="geometry" />
        </mxCell>
        <mxCell id="22TfEtCPh6xhHIKmJ_tt-4" value="" style="shape=parallelogram;perimeter=parallelogramPerimeter;whiteSpace=wrap;html=1;fixedSize=1;" vertex="1" parent="1">
          <mxGeometry x="220" y="60" width="120" height="30" as="geometry" />
        </mxCell>
        <mxCell id="22TfEtCPh6xhHIKmJ_tt-9" style="edgeStyle=orthogonalEdgeStyle;rounded=0;orthogonalLoop=1;jettySize=auto;html=1;" edge="1" parent="1" source="22TfEtCPh6xhHIKmJ_tt-6" target="22TfEtCPh6xhHIKmJ_tt-8">
          <mxGeometry relative="1" as="geometry" />
        </mxCell>
        <mxCell id="22TfEtCPh6xhHIKmJ_tt-6" value="" style="shape=parallelogram;perimeter=parallelogramPerimeter;whiteSpace=wrap;html=1;fixedSize=1;" vertex="1" parent="1">
          <mxGeometry x="210" y="110" width="120" height="30" as="geometry" />
        </mxCell>
        <mxCell id="22TfEtCPh6xhHIKmJ_tt-7" style="edgeStyle=orthogonalEdgeStyle;rounded=0;orthogonalLoop=1;jettySize=auto;html=1;entryX=0.583;entryY=0.3;entryDx=0;entryDy=0;entryPerimeter=0;" edge="1" parent="1" source="22TfEtCPh6xhHIKmJ_tt-4" target="22TfEtCPh6xhHIKmJ_tt-6">
          <mxGeometry relative="1" as="geometry" />
        </mxCell>
        <mxCell id="22TfEtCPh6xhHIKmJ_tt-8" value="" style="shape=parallelogram;perimeter=parallelogramPerimeter;whiteSpace=wrap;html=1;fixedSize=1;" vertex="1" parent="1">
          <mxGeometry x="210" y="170" width="120" height="30" as="geometry" />
        </mxCell>
        <mxCell id="22TfEtCPh6xhHIKmJ_tt-10" value="" style="shape=parallelogram;perimeter=parallelogramPerimeter;whiteSpace=wrap;html=1;fixedSize=1;" vertex="1" parent="1">
          <mxGeometry x="210" y="220" width="120" height="30" as="geometry" />
        </mxCell>
        <mxCell id="22TfEtCPh6xhHIKmJ_tt-12" style="edgeStyle=orthogonalEdgeStyle;rounded=0;orthogonalLoop=1;jettySize=auto;html=1;entryX=0.5;entryY=0.3;entryDx=0;entryDy=0;entryPerimeter=0;" edge="1" parent="1" source="22TfEtCPh6xhHIKmJ_tt-8" target="22TfEtCPh6xhHIKmJ_tt-10">
          <mxGeometry relative="1" as="geometry" />
        </mxCell>
        <mxCell id="22TfEtCPh6xhHIKmJ_tt-16" style="edgeStyle=orthogonalEdgeStyle;rounded=0;orthogonalLoop=1;jettySize=auto;html=1;entryX=0.5;entryY=0;entryDx=0;entryDy=0;" edge="1" parent="1" source="22TfEtCPh6xhHIKmJ_tt-13" target="22TfEtCPh6xhHIKmJ_tt-14">
          <mxGeometry relative="1" as="geometry" />
        </mxCell>
        <mxCell id="22TfEtCPh6xhHIKmJ_tt-13" value="" style="shape=parallelogram;perimeter=parallelogramPerimeter;whiteSpace=wrap;html=1;fixedSize=1;" vertex="1" parent="1">
          <mxGeometry x="200" y="270" width="120" height="30" as="geometry" />
        </mxCell>
        <mxCell id="22TfEtCPh6xhHIKmJ_tt-14" value="" style="shape=parallelogram;perimeter=parallelogramPerimeter;whiteSpace=wrap;html=1;fixedSize=1;" vertex="1" parent="1">
          <mxGeometry x="200" y="320" width="120" height="30" as="geometry" />
        </mxCell>
        <mxCell id="22TfEtCPh6xhHIKmJ_tt-15" style="edgeStyle=orthogonalEdgeStyle;rounded=0;orthogonalLoop=1;jettySize=auto;html=1;entryX=0.583;entryY=0.1;entryDx=0;entryDy=0;entryPerimeter=0;" edge="1" parent="1" source="22TfEtCPh6xhHIKmJ_tt-10" target="22TfEtCPh6xhHIKmJ_tt-13">
          <mxGeometry relative="1" as="geometry" />
        </mxCell>
        <mxCell id="22TfEtCPh6xhHIKmJ_tt-17" style="edgeStyle=orthogonalEdgeStyle;rounded=0;orthogonalLoop=1;jettySize=auto;html=1;entryX=0.583;entryY=-0.1;entryDx=0;entryDy=0;entryPerimeter=0;" edge="1" parent="1" source="22TfEtCPh6xhHIKmJ_tt-14" target="22TfEtCPh6xhHIKmJ_tt-3">
          <mxGeometry relative="1" as="geometry" />
        </mxCell>
        <mxCell id="22TfEtCPh6xhHIKmJ_tt-18" value="" style="rounded=0;whiteSpace=wrap;html=1;" vertex="1" parent="1">
          <mxGeometry x="190" y="430" width="120" height="30" as="geometry" />
        </mxCell>
        <mxCell id="22TfEtCPh6xhHIKmJ_tt-21" value="" style="shape=parallelogram;perimeter=parallelogramPerimeter;whiteSpace=wrap;html=1;fixedSize=1;" vertex="1" parent="1">
          <mxGeometry x="190" y="480" width="120" height="30" as="geometry" />
        </mxCell>
        <mxCell id="22TfEtCPh6xhHIKmJ_tt-23" style="edgeStyle=orthogonalEdgeStyle;rounded=0;orthogonalLoop=1;jettySize=auto;html=1;entryX=0.5;entryY=0.233;entryDx=0;entryDy=0;entryPerimeter=0;" edge="1" parent="1" source="22TfEtCPh6xhHIKmJ_tt-18" target="22TfEtCPh6xhHIKmJ_tt-21">
          <mxGeometry relative="1" as="geometry" />
        </mxCell>
        <mxCell id="22TfEtCPh6xhHIKmJ_tt-24" style="edgeStyle=orthogonalEdgeStyle;rounded=0;orthogonalLoop=1;jettySize=auto;html=1;entryX=0.583;entryY=0.133;entryDx=0;entryDy=0;entryPerimeter=0;" edge="1" parent="1" source="22TfEtCPh6xhHIKmJ_tt-21" target="22TfEtCPh6xhHIKmJ_tt-2">
          <mxGeometry relative="1" as="geometry" />
        </mxCell>
      </root>
    </mxGraphModel>
  </diagram>
</mxfile>
